<svg width="400" height="400" viewBox="0 0 400 400" fill="none" xmlns="http://www.w3.org/2000/svg">
<rect width="400" height="400" rx="40" fill="#4E2A8C"/>
<path d="M273.888 196.95C273.602 196.311 272.766 196.156 272.27 196.649L201.544 266.974C201.151 267.364 200.509 266.921 200.735 266.415L252.373 150.89C252.663 150.241 252.663 149.499 252.373 148.849L200.551 33.0399C200.198 32.2512 199.078 32.2512 198.725 33.0399L93.8935 267.328C93.5466 268.103 93.7273 269.013 94.344 269.597L197.919 367.674C198.883 368.587 200.393 368.587 201.357 367.674L304.932 269.597C305.549 269.013 305.729 268.103 305.382 267.328L273.888 196.95Z" fill="white"/>
</svg>
