<svg fill="none" viewBox="0 0 500 500" height="500" width="500" xmlns="http://www.w3.org/2000/svg" xmlns:xlink="http://www.w3.org/1999/xlink">
<path fill="white" d="M391.246 121.795C364.546 109.571 336.36 100.899 307.406 96C303.444 103.083 299.859 110.37 296.666 117.831C265.825 113.184 234.462 113.184 203.621 117.831C200.426 110.371 196.841 103.084 192.881 96C163.909 100.94 135.704 109.633 108.977 121.858C55.9175 200.361 41.5339 276.913 48.7257 352.379C79.7986 375.337 114.578 392.797 151.552 404C159.878 392.803 167.245 380.923 173.575 368.489C161.551 363.998 149.947 358.458 138.895 351.932C141.803 349.822 144.648 347.648 147.397 345.539C179.555 360.662 214.655 368.503 250.191 368.503C285.728 368.503 320.828 360.662 352.986 345.539C355.767 347.808 358.612 349.982 361.488 351.932C350.415 358.468 338.789 364.019 326.744 368.521C333.067 380.95 340.434 392.819 348.767 404C385.773 392.842 420.579 375.39 451.657 352.411C460.096 264.895 437.242 189.046 391.246 121.795ZM182.685 305.968C162.644 305.968 146.086 287.781 146.086 265.406C146.086 243.032 162.068 224.685 182.621 224.685C203.173 224.685 219.602 243.032 219.251 265.406C218.899 287.781 203.109 305.968 182.685 305.968ZM317.698 305.968C297.625 305.968 281.132 287.781 281.132 265.406C281.132 243.032 297.114 224.685 317.698 224.685C338.283 224.685 354.584 243.032 354.233 265.406C353.881 287.781 338.123 305.968 317.698 305.968Z"></path>
</svg>