<svg fill="none" viewBox="0 0 500 500" height="500" width="500" xmlns="http://www.w3.org/2000/svg" xmlns:xlink="http://www.w3.org/1999/xlink">
<path fill="white" d="M153.971 245.164H194.55V412.22C194.55 415.518 197.222 418.191 200.52 418.191H269.323C272.622 418.191 275.294 415.518 275.294 412.22V245.95H321.943C324.976 245.95 327.528 243.674 327.874 240.662L334.959 179.16C335.154 177.468 334.618 175.773 333.486 174.504C332.353 173.233 330.731 172.506 329.029 172.506H275.297V133.953C275.297 122.332 281.554 116.439 293.897 116.439C295.656 116.439 329.029 116.439 329.029 116.439C332.327 116.439 335 113.765 335 110.468V54.015C335 50.7167 332.327 48.0442 329.029 48.0442H280.612C280.27 48.0275 279.512 48 278.394 48C269.993 48 240.792 49.6491 217.726 70.8694C192.169 94.3849 195.721 122.541 196.57 127.423V172.505H153.971C150.673 172.505 148 175.177 148 178.475V239.192C148 242.49 150.673 245.164 153.971 245.164Z"></path>
</svg>