<?xml version="1.0" encoding="utf-8"?>
<!-- Generator: Adobe Illustrator 26.0.1, SVG Export Plug-In . SVG Version: 6.00 Build 0)  -->
<svg version="1.1" xmlns="http://www.w3.org/2000/svg" xmlns:xlink="http://www.w3.org/1999/xlink" x="0px" y="0px"
	 viewBox="0 0 2482.7 441.2" style="enable-background:new 0 0 2482.7 441.2;" xml:space="preserve">
<style type="text/css">
	.st0{fill:#070709;}
	.st1{fill:#F6F6F6;}
	.st2{fill:#3D99D3;}
	.st3{fill:#E24B45;}
	.st4{fill:#FFBD79;}
	.st5{fill:#8BDCEA;}
	.st6{fill:#722C26;}
	.st7{fill:#194081;}
	.st8{fill:#E48FDC;}
	.st9{fill:#337C89;}
	.st10{fill:#5390FA;}
	.st11{fill:#90598B;}
	.st12{fill:#FFFFFF;}
</style>
<g id="Swatches">
	<rect x="-251.4" y="-88.9" class="st0" width="100" height="100"/>
	<rect x="-251.4" y="47.5" class="st1" width="100" height="100"/>
	<rect x="-251.4" y="183.8" class="st2" width="100" height="100"/>
	<rect x="-251.4" y="320.1" class="st3" width="100" height="100"/>
	<rect x="-251.4" y="456.5" class="st4" width="100" height="100"/>
	<rect x="-251.4" y="592.8" class="st5" width="100" height="100"/>
	<rect x="-251.4" y="729.2" class="st6" width="100" height="100"/>
	<rect x="-251.4" y="865.5" class="st7" width="100" height="100"/>
	<rect x="-251.4" y="1001.9" class="st8" width="100" height="100"/>
	<rect x="-251.4" y="1138.2" class="st9" width="100" height="100"/>
	<rect x="-251.4" y="1274.6" class="st10" width="100" height="100"/>
	<rect x="-251.4" y="1410.9" class="st11" width="100" height="100"/>
</g>
<g id="Artwork">
	<path id="FILL" class="st12" d="M524.5,16.7c-0.5,0-1.1,0-1.6,0c-103.9,0-157.7,91.8-158.3,179.5c-0.5,82.6,61.5,169.6,158.5,169.6
		c3.3,0,6.6-0.1,9.9-0.3c96.2-5.8,153.4-86.2,154.3-177.5C688.1,99.8,618.6,17.6,524.5,16.7z M550.7,336.3c-2.5,0.7-5,1.1-7.4,1.1
		c-41.1,0-60.3-101.9-65.2-133c-5.7-35.8-21.5-148.4,26.2-158.9c2-0.4,4-0.6,5.9-0.7c41.7,0,61.2,100.7,66.3,132.4
		C582.5,214.1,597.4,323,550.7,336.3z M904.4,22.7c0,1.8,0,2.8,0,4.6c0,0,0,0,0,0c0,0,0.7,1,1.8,2.7c3.8,5.8,13.3,20.5,23.9,38.9
		c15.8,27.5,18.9,36.5,19.2,75.1c0.2,30.3,0.6,43.5,0.6,73.9c-45.4-68.5-75.7-120.8-119.5-188.7h0c-0.8-1.3-1.6-2.5-2.4-3.8h0
		c-0.6-0.9-1.2-1.9-1.8-2.8c-7.9,0-16.8,0-26.4,0c-28.3,0-62.4,0-91.3,0c-11.3,0-21.8,0-30.9,0c0,2.1,0,3.2,0,5.3
		c0,0,15.9,14.9,23.6,24.3c8.4,10.3,25.6,22.9,26.1,42.8c1,42.8,0.3,87.5-1.6,131.5c-1.5,34-0.3,47.2-21.1,77.5
		c-8.2,12.7-20.3,29.5-30.5,42.6c-0.8,1-1.5,2-2.3,2.9c0,0-0.1,0.1-0.1,0.1c0.8,1.5,0.9,1.7,1.7,3.2c38.9-2,94.1-3.6,133.2-5.2
		c0.1-0.1,0.1-0.2,0.1-0.3h0c0.9-1.8,0.7-1.4,1.7-3.5v0c-9-12.7-14-23.5-22.1-38.5c-15.7-24.6-20.7-48.4-20.7-59.4
		c0-40.8,0-80.6-0.1-121.1c52.1,83,88.1,140.6,141.4,220.4c21.4-0.7,58.2-1.8,79.6-2.3l25-0.8l-0.5-2.7l0,0l0,0
		c-0.2-0.1-0.4-0.3-0.7-0.5c0,0-0.1-0.1-0.1-0.2c-0.2-0.2-0.5-0.5-0.7-0.8c0,0-0.1-0.1-0.1-0.1c-0.3-0.3-0.6-0.7-0.9-1.1
		c0,0,0,0,0,0c-0.4-0.5-0.7-1-1.1-1.5l0,0c-4.6-6.4-11.7-18.3-16.2-24.6c-3-4.1-4.5-9.1-4.5-14.2c0.5-45.6-1.2-94.1,0.2-152.1
		c0.8-32.9-4.3-57.6,19.5-86.5c15.3-22.9,20.5-30.6,20.5-30.6c0-1.5,0-2.4,0-3.6c0-0.3,0-0.6,0-0.9c0,0-0.1,0-0.1,0
		C987.3,22.7,943.6,22.7,904.4,22.7z M688.1,29.6c0.1,0,0.2,0.1,0.3,0.1c0.1,0.2,0.2,0.4,0.4,0.6C688.6,30,688.3,29.8,688.1,29.6z
		 M1477.4,336.2c-0.6-0.6-1.2-1.2-1.8-1.8c-3.5-3.7-6.1-6.7-10.3-10.9c-20.4-19.5-29.4-41.4-41.4-65.8c-13.9-28.2-27.9-52.2-59.8-61
		c34.1-8.8,79.8-35.9,80.4-85.8c0.2-20.9-6-37-16.9-49.4l0,0c0-0.1-0.1-0.1-0.1-0.2c-27.2-30.9-82.8-38.5-135.7-38.5
		c-1.6,0-3.3,0-4.9,0c-5.2,0-10.4,0-15.6,0c-46.4,0-92.8,0-139.2,0c0,0,0,0,0,0c0,0.4,0,0.7,0,1.1c0,1.4,0,2.4,0,4
		c0,0,15.5,15.1,23.2,24.2c9.9,11.6,12.9,19.7,12.9,46.3c0,54.8,0,109.5-0.1,164.3c0.1,28.3-2.9,36.5-12.9,48.4
		c-2.4,2.9-5.7,6.6-9,10.2c-0.9,1-1.9,2.1-2.8,3.1c-0.1,0.2-0.3,0.3-0.4,0.5c-0.9,1-1.9,2.1-2.7,3c-4.6,5.1-8.3,9.1-8.3,9.1l0,4.5h0
		l0,0c1.7,0,3.4,0,5.1,0l0,0c19.2-0.2,38.4-0.3,57.6-0.3c33.1,0,66.1,0.2,99.3,0.3l0,0c1.7,0,3.5,0,5.2,0v0c0,0,0,0,0,0l0-1.1l0-1.1
		h0l0-2.3c0,0-15.8-17.5-23-26.3c-9.5-11.6-9.7-11-9.7-37.7c0-21.8,0-39.5,0-61.3c1.7,0,3.1-0.1,4.4-0.1c0.1,0,0.3,0,0.4,0
		c3.5,0,6.8,1.8,8.9,4.7c13.3,18.1,24.4,40.7,32.1,61.6c13.8,37.4,18.5,58,65.9,64c5.6,0.1,11.5,0.1,17.4,0.2c0.5,0,1.1,0,1.6,0v0
		c15.4,0.1,31.5,0.1,47,0.1c11.8,0,23.3,0,33.7,0c0.6-1.5,0.8-1.9,1.2-2.9c0,0,0,0,0,0c0.1-0.3,0.2-0.6,0.4-1c-0.5-0.5-1-1-1.5-1.5
		C1477.8,336.6,1477.6,336.4,1477.4,336.2z M1339.4,111.4c0,32.5-22.7,66.5-52.3,66.5c-0.2,0-0.4,0-0.6,0
		c-9.6,1.2-10.4,1.3-18.7,1.3c-0.4,0-0.9,0-1.4,0c0-6.9,0-13.6,0-20.3c0-1.4,0-2.7,0-4.1h0c0-31.4,0-61.4,0-93.9
		c0-14.1,8.7-11.2,19-13.2c0.8,0,1.2,0,2.1,0c0.3,0,0.7,0,1,0C1326.7,47.8,1339.4,79.1,1339.4,111.4z M358.5,296.5l37.5,75.1h0v0
		c-1.1,0.1-2.1,0.2-3.2,0.2l0,0c-119.2,8.5-239.1,29.5-357,43.4v0v-4.5v-7.6c0,0,16-17.3,24.1-29.5c11.9-18,26.2-42,25.4-61.7
		c0-66.8,0-133.5,0-200.3c0.9-19.2-11.6-34.4-26-50.1c-9.6-10.5-27.9-32.7-27.9-32.7v-6.1c114.6,0,232.1-0.1,346.7-0.1
		c1.5,0,3,0,4.5,0l-40.9,77.2v0l-0.8,1.6h0l0,0.1c0,0-0.1,0-0.1-0.1h0c0,0,0,0,0,0c-2.4-1.4-5.3-3.4-6.7-6.1
		C316.1,62,308.3,56,258.7,56c-3.4,0-6.9,0-10.7,0.1c-6.6,0.1-13.2,0.1-19.8,0.1c-16.5,1.2-27.9,3.2-26.9,19.6
		c0,41.6-0.1,62.1-0.1,103.1c1.4,0,2.6-0.1,4.4-0.1c31.3-1.3,43.9,0.8,66.4-11.4c19.8-10.8,29.6-25.5,35.4-33c1.8,0,2.7,0,4.4-0.1v0
		l0,5.6v0l-0.2,124.6c-0.1,0-0.1,0-0.2,0.1v0c-1.2,0.3-1.7,0.4-2.3,0.6c-0.1,0-0.3,0.1-0.4,0.1c-0.3,0.1-0.6,0.1-1,0.2
		c-0.2,0-0.3,0.1-0.5,0.1c-5.7-6.6-13.9-17.5-27.9-29.6c-22.2-16.6-25.3-20.4-59.1-20.4c-4.3,0-9.2,0.1-14.7,0.2
		c-1.8,0.1-3,0.1-4.4,0.1l0,5.7c0,44-0.1,61.4-0.1,105.5c2.6,16.2,17.2,19.3,34.8,20.6c3.3,0.2,7.2,0.4,11.2,0.4
		c3.5,0,6.9-0.1,9.8-0.3c5.9-0.4,10.5-0.8,18.1-1.3c56.9-3.2,54.3-17.9,77.3-55.9l0,0h0l2.2,2.1v0L358.5,296.5z M2451.3,22.7
		c0,0.4,0,0.8,0,1.2c0,1.7,0,3.2,0,5c0,0.1,0,0.2,0,0.4c0,0-15.9,18.5-23.9,29.1c-5.7,7.5-11.5,16-15.9,25c-0.7,1.4-1.3,2.7-1.9,4.1
		c-3.7,8.4-6,17.1-5.7,25.5c0,0.1,0,0.3,0,0.4c0,64.3,0,128.6,0,193c0,1.8,0,3.5,0,5.3v0c0,0.6,0,1.3,0,1.9
		c-0.7,19.5,12,39.9,23.5,56.3c8,11.4,23.9,40.5,23.9,40.5c0,2.4,0,3.7,0,6.1c-57.3-6.1-124.9-20.7-182.3-26.1c0-1.3,0-2.3,0-3.3
		l0,0c0-0.6,0-1.3,0-2.2c0-0.1,0-0.2,0-0.4c0,0,16.4-16.3,23.9-26c9.6-12.4,13.7-21.5,13.8-50.9c0-0.5,0-1,0-1.5c0,0,0,0,0,0
		c0,0,0,0,0,0c0-28.9,0-63.1,0-92l-108.2-0.1l0.5,82.9c0,29.8-0.1,40.6,10,54.6c7.9,11,23.9,29.7,23.9,29.7c0,1.4,0,2.3,0,3.4
		c0,0.1,0,0.2,0,0.3c0,0.6,0,1.3,0,2.1c0,0,0,0,0,0.1c0,0,0,0,0,0c0,0,0,0,0,0v0c-1.5-0.1-3.1-0.3-4.6-0.4v0
		c-55.9-5.1-112.2-11.9-168.1-16.2v0c0,0,0,0,0,0c0-0.9,0-1.5,0-2.2c0-1,0-2,0-3.4c0,0,16.5-13.1,24.4-22.6
		c7.3-8.8,11-15.9,12.5-30.3c0.1-0.9,0.2-1.7,0.2-2.7c0,0,0-0.1,0-0.1c0.1-0.9,0.1-1.9,0.2-2.9c0.2-4.1,0.3-8.7,0.3-14.1
		c-0.1-58.3-0.2-116.7-0.2-175c0-1.4,0-2.7,0-4.1c0-2.1,0-4.3,0-6.4c0-7.6-0.2-13.8-0.7-19.1c-0.1-1.4-0.3-2.8-0.5-4.1
		c-1.7-12.5-5.4-19.2-12.2-27.9c-6.7-8.6-19.3-21.9-22.9-25.7c0,0,0,0,0,0c-0.7-0.7-1.1-1.1-1.1-1.1c0-1.4,0-2.4,0-3.5c0,0,0,0,0,0
		c0-0.7,0-1.4,0-2.3c11.4,0,23.1,0,34.9,0c34.6,0,70.6,0,105.3,0c12.9,0,25.5,0,37.9,0h0c0.5,0,1.1,0,1.6,0c0,0,0,0,0,0
		c0,2.3,0,3.8,0,6.1c0,0-17.8,16.2-25.7,26.5c-6.8,8.8-11.5,15.5-13.8,28.2c-0.1,0.6-0.2,1.3-0.3,2l0,0c-0.9,5.8-1.4,12.7-1.3,21.6
		c0,17.1-0.2,30.7-0.3,45.1c0,1.2,0,2.3,0,3.5c-0.1,8.2-0.1,16.7-0.1,26.4l108.2,0.2c0-28.9,0.1-42.4,0.1-71.3
		c0-31.2-4.1-40.2-13.9-53.8c-7.5-10.4-24-28.2-24-28.2c0-1.5,0-2.7,0-3.9c0-0.3,0-0.6,0-1c0-0.4,0-0.8,0-1.2c1.8,0,3.6,0,5.3,0l0,0
		c9.8,0,19.9,0,30.1,0c35.1,0,72.2,0,107.5,0C2425.2,22.7,2438.5,22.7,2451.3,22.7z M1740.8,241.4c2.1,84.9-51.2,108.5-116.4,108.5
		c-4.1,0-8.2-0.1-12.3-0.3c-40.9-1.7-76.5-17.5-98.7-44.7c-0.5-0.6-0.9-1.2-1.4-1.7c-13.9-17.8-22.1-40.4-22.4-67
		c0-45.9-0.1-91.8-0.1-137.7c0-26.9-3.2-35.1-13.3-46.8c-7.9-9.2-24-24.4-24-24.4c0-0.7,0-1.3,0-1.8c0-0.3,0-0.7,0-1
		c0-0.5,0-1.1,0-1.7h0c0.8,0,1.6,0,2.4,0c56.7,0,116.1,0,172.7,0c0,0.1,0,0.2,0,0.2h0c0,0.6,0,1.1,0,1.6c0,0.6,0,1.2,0,1.9
		c0,0.3,0,0.5,0,0.9h0c0,0,0,0,0,0.1c0,0-12.9,11.4-20.4,20.4c-9.8,11.7-10.6,24.7-10.6,51.8c0,19.9,0,39.8,0.1,59.7h0
		c0,0.8,0,1.6,0,2.4v0.1c0,26.4,0.1,52.8,0.1,79.2c-0.8,36.5,14.6,65.7,51.6,65.7c2.1,0,4.2-0.1,6.4-0.3
		c40.9-3.4,49.2-24.3,51.6-63.4c-0.1-38.7-0.1-77.3-0.2-116c0.5-26.1-5.7-50.9-20.6-72.5c-16-23.2-21.4-27.1-21.4-27.1
		c0-1.9,0-2.8,0-4.7c39.7,0,87.3,0,127,0c0,0,0,0,0,0c0,0.9,0,1.5,0,2.2h0c0,0.8,0,1.5,0,2.5c0,0-5.2,3.8-21.2,26.7
		c-15.1,21.5-27.6,45.2-29.1,71.9C1740.7,164.6,1740.8,203,1740.8,241.4z M2028.4,189.5c15.2,18,23.3,34.3,23.3,65.3
		c0,66.3-52.1,103.9-121.9,103.9c-2.5,0-5,0-7.5-0.1c-44-1.7-110.6-12.9-154.8-20.8l0,0c-0.9-0.2-1.8-0.3-2.7-0.5v0
		c13.1-33.8,26-75,34.7-111.8c0.1,0,0.2,0,0.3,0c1,0,2.2-0.9,3.4-1.9c0,0,0,0,0,0c0.3-0.3,0.7-0.6,1-0.9c1.5-1.4,3-2.7,4.3-2.7
		c0.1,0,0.2,0,0.3,0c24.2,39,57.3,104.4,111.8,105.2c0.5,0,1.1,0,1.6,0c20.8,0,42-5.8,45.4-27.3c2.7-17-32.1-41.7-62.4-58
		c-1.3-0.7-2.5-1.3-3.8-2c-6-3.1-11.8-5.9-17-8.2c-45.4-19.9-102.1-51.1-102.1-107.7c0-11.7,1.9-22.4,5.2-32.1c0,0,0,0,0,0
		c0,0,0,0,0-0.1c0.7-2,1.4-3.9,2.2-5.8c0-0.1,0.1-0.1,0.1-0.2c0.8-1.9,1.7-3.7,2.6-5.5c0,0,0,0,0,0l0,0
		c21.4-41.6,73.4-61.6,126.3-61.6c0.1,0,0.2,0,0.4,0c38,0.1,83.7,4.4,121.3,17.1v0c0.9,0.3,1.8,0.6,2.7,0.9v0
		c-13.9,30.7-27,61.8-41.1,92.5c-2-0.9-3-1.4-5.1-2.3c-10.7-26.3-44-80.3-83.7-81.3c-0.7,0-1.3,0-2,0c-22.1,0-38.1,9.4-39,32.9
		c0,0,0,0,0,0c0,0.5-0.1,1-0.1,1.6c0,0,0,0,0,0c0,0.1,0,0.2,0,0.2c-0.1,34.9,51,51.9,75.9,64.5c26.3,13.4,57.7,23.3,77,43.1
		c0.3,0.3,0.5,0.6,0.8,0.9C2026.7,187.6,2027.6,188.5,2028.4,189.5z"/>
</g>
</svg>
