<svg xml:space="preserve" style="enable-background:new 0 0 500 500;" viewBox="0 0 500 500" y="0px" x="0px" xmlns:xlink="http://www.w3.org/1999/xlink" xmlns="http://www.w3.org/2000/svg" id="Bold" version="1.1">
<style type="text/css">
	.st0{fill:#FFFFFF;}
	.st1{fill-rule:evenodd;clip-rule:evenodd;}
	.st2{fill:#E40061;}
	.st3{fill-rule:evenodd;clip-rule:evenodd;fill:#FFFFFF;}
	.st4{fill:#01FFC1;}
</style>
<g>
	<g>
		<g>
			<path d="M362.4,62.6H137.6c-41.4,0-75,33.7-75,75v224.9c0,41.4,33.7,75,75,75h224.8c41.4,0,75-33.7,75-75V137.6
				C437.4,96.2,403.8,62.6,362.4,62.6z M250,362.4c-62.1,0-112.4-50.4-112.4-112.4c0-62.1,50.3-112.4,112.4-112.4
				c62.1,0,112.4,50.3,112.4,112.4C362.4,312,312,362.4,250,362.4z M371.9,156.4c-15.5,0-28.1-12.6-28.1-28.1s12.6-28.1,28.1-28.1
				c15.5,0,28.1,12.6,28.1,28.1S387.4,156.4,371.9,156.4z" class="st0"></path>
		</g>
	</g>
	<g>
		<g>
			<circle r="75" cy="250" cx="250" class="st0"></circle>
		</g>
	</g>
</g>
</svg>
