<svg xmlns="http://www.w3.org/2000/svg" fill="none" viewBox="0 0 500 500" height="500" width="500">
<path fill="white" d="M180.836 347.559L158.193 338.18C162.315 346.863 169.498 353.719 178.363 357.433C187.966 361.422 198.76 361.433 208.372 357.465C217.983 353.498 225.626 345.875 229.62 336.274C233.65 326.62 233.668 315.922 229.675 306.249C227.734 301.476 224.864 297.137 221.232 293.482C217.599 289.828 213.277 286.932 208.516 284.962C199.293 281.116 188.944 280.958 179.608 284.523L203.02 294.232C210.089 297.187 215.696 302.827 218.609 309.913C221.522 316.999 221.502 324.952 218.555 332.024C217.099 335.522 214.969 338.698 212.285 341.372C209.602 344.046 206.417 346.165 202.914 347.608C199.411 349.05 195.659 349.789 191.87 349.78C188.082 349.772 184.332 349.017 180.836 347.559Z"></path>
<path fill="white" d="M249.808 67C152.716 67 73.2652 142.53 67 238.028L67.0733 238.157V238.138L165.503 278.66C174.379 272.782 184.892 269.87 195.528 270.344L240.355 205.219L240.337 204.321C240.341 185.86 247.67 168.154 260.714 155.089C273.758 142.025 291.452 134.669 309.913 134.635C319.183 134.554 328.377 136.324 336.955 139.841C345.533 143.357 353.323 148.55 359.87 155.114C366.416 161.678 371.588 169.482 375.082 178.069C378.575 186.656 380.321 195.854 380.216 205.125C380.111 214.395 378.158 223.551 374.471 232.057C370.784 240.563 365.438 248.248 358.744 254.663C352.051 261.077 344.145 266.092 335.49 269.414C326.835 272.735 317.604 274.297 308.338 274.007L244.202 319.842C244.433 328.322 242.537 336.725 238.687 344.284C234.838 351.844 229.157 358.319 222.163 363.12C215.169 367.921 207.085 370.895 198.647 371.77C190.209 372.646 181.687 371.395 173.856 368.132C166.34 364.994 159.69 360.094 154.467 353.844C149.244 347.595 145.602 340.18 143.849 332.226L74.5109 303.611C97.4099 378.738 167.206 433.385 249.808 433.385C350.985 433.385 433 351.37 433 250.192C433 149.015 350.966 67 249.808 67Z"></path>
<path fill="white" d="M356.316 204.303C356.306 192.002 351.42 180.207 342.729 171.502C334.038 162.797 322.25 157.892 309.95 157.863C297.859 158.203 286.378 163.245 277.946 171.917C269.514 180.589 264.797 192.207 264.797 204.303C264.797 216.398 269.514 228.017 277.946 236.689C286.378 245.361 297.859 250.402 309.95 250.742C322.253 250.723 334.047 245.821 342.74 237.114C351.433 228.407 356.316 216.606 356.316 204.303ZM275.216 204.248C275.216 184.976 290.824 169.35 310.023 169.35C329.258 169.35 344.848 184.976 344.848 204.248C344.853 208.825 343.956 213.358 342.208 217.589C340.46 221.819 337.896 225.664 334.662 228.903C331.428 232.142 327.587 234.712 323.36 236.466C319.132 238.221 314.6 239.125 310.023 239.128C290.806 239.128 275.216 223.501 275.216 204.248Z"></path>
</svg>
