<svg fill="none" viewBox="0 0 500 500" height="500" width="500" xmlns="http://www.w3.org/2000/svg" xmlns:xlink="http://www.w3.org/1999/xlink">
<path fill="white" d="M361.139 152.142C358.834 150.949 356.59 149.641 354.415 148.223C348.092 144.037 342.295 139.105 337.148 133.532C324.271 118.777 319.461 103.808 317.689 93.3277H317.761C316.281 84.6285 316.893 79 316.985 79H258.332V306.119C258.332 309.169 258.332 312.182 258.204 315.161C258.204 315.531 258.168 315.873 258.147 316.272C258.147 316.436 258.147 316.607 258.111 316.778C258.111 316.821 258.111 316.863 258.111 316.906C257.493 325.055 254.884 332.927 250.515 339.83C246.145 346.732 240.149 352.454 233.053 356.491C225.658 360.704 217.293 362.914 208.785 362.903C181.458 362.903 159.31 340.588 159.31 313.03C159.31 285.472 181.458 263.158 208.785 263.158C213.958 263.153 219.099 263.968 224.018 265.573L224.089 205.769C209.158 203.837 193.989 205.026 179.539 209.259C165.09 213.492 151.673 220.678 140.135 230.363C130.026 239.159 121.527 249.654 115.021 261.377C112.545 265.651 103.203 282.829 102.072 310.708C101.36 326.532 106.106 342.925 108.368 349.701V349.843C109.791 353.833 115.305 367.448 124.291 378.926C131.537 388.133 140.098 396.221 149.698 402.929V402.787L149.84 402.929C178.235 422.251 209.717 420.983 209.717 420.983C215.167 420.762 233.423 420.983 254.155 411.144C277.15 400.236 290.241 383.985 290.241 383.985C298.604 374.274 305.254 363.208 309.906 351.261C315.214 337.29 316.985 320.533 316.985 313.835V193.343C317.697 193.771 327.173 200.048 327.173 200.048C327.173 200.048 340.826 208.811 362.128 214.518C377.41 218.579 398 219.434 398 219.434V161.126C390.786 161.909 376.137 159.63 361.139 152.142Z"></path>
</svg>