<svg width="150" height="148" viewBox="0 0 150 148" fill="none" xmlns="http://www.w3.org/2000/svg">
    <path d="M3.05817 94.7189C12.3315 125.027 41.012 147.129 74.9507 147.129C116.399 147.129 150 114.193 150 73.5645C150 32.9362 116.399 0 74.9507 0C35.1793 0 2.63367 30.3293 0.0632324 68.6771C4.92737 76.6703 6.82002 81.6152 3.05817 94.7189Z" fill="white"/>
    <path d="M71.0855 55.1399L71.0925 55.5031L52.7289 81.653C49.7551 81.5197 46.7719 82.0323 43.9387 83.1749C42.7054 83.6662 41.528 84.2826 40.4255 85.014L0.0982102 68.7218C0.0982102 68.7218 -0.835215 83.7703 3.05328 94.9843L31.5626 106.516C32.9698 112.787 37.379 118.286 43.8567 120.93C48.9528 123.005 54.6811 123.013 59.7834 120.952C64.8857 118.891 68.9447 114.929 71.0691 109.936C72.2024 107.277 72.7491 104.413 72.6732 101.532L98.9241 83.1289L99.569 83.1404C115.294 83.1404 128.076 70.5747 128.076 55.1399C128.076 39.7051 115.318 27.1854 99.569 27.1532C83.8509 27.1532 71.062 39.7051 71.062 55.1399H71.0855ZM66.6763 108.129C63.2663 116.175 53.857 119.962 45.6789 116.621C42.0499 115.126 39.1083 112.376 37.4141 108.893L46.6945 112.663C48.1281 113.248 49.6652 113.55 51.2181 113.552C52.771 113.555 54.3091 113.257 55.7446 112.677C57.1801 112.096 58.4849 111.244 59.5843 110.169C60.6838 109.094 61.5564 107.818 62.1523 106.412C63.3589 103.572 63.366 100.378 62.1721 97.533C60.9782 94.6877 58.6809 92.4232 55.7848 91.2371L46.1691 87.3405C49.87 85.9611 54.0774 85.9152 58.0128 87.5175C61.9998 89.1336 65.0487 92.1773 66.681 96.0694C68.3133 99.9614 68.304 104.253 66.6576 108.129M99.5948 73.7954C94.5559 73.782 89.7278 71.8116 86.168 68.3158C82.6082 64.82 80.607 60.0838 80.6027 55.1445C80.6082 50.206 82.61 45.471 86.1697 41.9761C89.7293 38.4813 94.5567 36.5116 99.5948 36.4982C104.634 36.5104 109.462 38.4796 113.023 41.9745C116.584 45.4695 118.586 50.2052 118.592 55.1445C118.587 60.0845 116.585 64.8215 113.025 68.3174C109.464 71.8134 104.635 73.7832 99.5948 73.7954ZM85.3636 55.1146C85.3605 51.4035 86.8607 47.843 89.5345 45.2156C92.2083 42.5883 95.837 41.109 99.623 41.1029C107.491 41.1029 113.892 47.3788 113.892 55.1146C113.894 58.8265 112.392 62.3872 109.716 65.0139C107.04 67.6405 103.41 69.1181 99.623 69.1218C95.8374 69.1163 92.2088 67.6379 89.5347 65.0114C86.8605 62.385 85.3617 58.8253 85.3636 55.1146Z" fill="#231E41"/>
</svg>
