<svg width="150" height="164" viewBox="0 0 150 164" fill="none" xmlns="http://www.w3.org/2000/svg">
    <path d="M70.0404 78.1404L0.620605 150.042C1.4176 152.762 2.82829 155.267 4.74647 157.369C6.66465 159.472 9.04033 161.117 11.6946 162.18C14.3489 163.244 17.2127 163.698 20.0703 163.509C22.9278 163.319 25.7048 162.492 28.192 161.088L106.302 117.108L70.0404 78.1404Z" fill="#EA4335"/>
    <path d="M140.235 65.918L106.457 46.792L68.436 79.7768L106.612 117.006L140.132 98.0846C142.273 96.9846 144.173 95.4771 145.723 93.6489C147.272 91.8206 148.441 89.7076 149.162 87.4313C149.883 85.155 150.142 82.7603 149.924 80.3847C149.706 78.0092 149.015 75.6997 147.891 73.5889C146.138 70.3233 143.435 67.6516 140.132 65.918H140.235Z" fill="#FBBC04"/>
    <path d="M0.620747 13.603C0.207701 15.1379 -0.000974932 16.7195 3.4242e-06 18.3078V145.338C-0.000974932 146.926 0.207701 148.507 0.620747 150.042L72.4201 79.9817L0.620747 13.603Z" fill="#4285F4"/>
    <path d="M70.5577 81.8227L106.457 46.7924L28.4506 2.60813C25.515 0.911248 22.1779 0.0115023 18.7774 3.65754e-05C14.67 -0.00801021 10.6726 1.3119 7.39462 3.75856C4.11659 6.20522 1.73771 9.64443 0.620605 13.5519L70.5577 81.8227Z" fill="#34A853"/>
</svg>
