<svg width="150" height="171" viewBox="0 0 150 171" fill="none" xmlns="http://www.w3.org/2000/svg">
    <path fill-rule="evenodd" clip-rule="evenodd" d="M136.378 5.21283e-05H13.6218C3.67201 5.21283e-05 0 3.59941 0 13.3569V131.097C0 132.201 0.045427 133.226 0.144938 134.177C0.371464 136.307 0.414112 138.37 2.43492 140.72C2.6324 140.95 4.69554 142.455 4.69554 142.455C5.80531 142.989 6.56307 143.382 7.81468 143.875L68.2616 168.7C71.3995 170.11 72.7117 170.659 74.9909 170.615V170.615C74.994 170.615 74.9968 170.615 74.9998 170.615C75.0029 170.615 75.0057 170.615 75.0088 170.615V170.615C77.288 170.659 78.6002 170.11 81.7385 168.7L142.185 143.875C143.437 143.382 144.194 142.989 145.304 142.455C145.304 142.455 147.368 140.95 147.565 140.72C149.586 138.37 149.628 136.307 149.855 134.177C149.954 133.226 150 132.201 150 131.097V13.3569C150 3.59941 146.328 5.21283e-05 136.378 5.21283e-05Z" fill="white"/>
    <path d="M128.155 118.371L128.127 118.643L128.1 118.941L128.044 119.213L127.961 119.484L127.908 119.729L127.824 120L127.714 120.245L127.603 120.462L127.494 120.706L127.355 120.924L127.217 121.141L127.052 121.358L126.913 121.576L126.749 121.766L126.555 121.956L126.39 122.119L126.169 122.309L125.976 122.472L125.755 122.635L125.535 122.769L125.314 122.932L125.065 123.067L124.817 123.176L124.57 123.312L124.293 123.421L124.017 123.529L123.742 123.611L123.466 123.692L123.217 123.774L122.942 123.828L122.694 123.882L122.446 123.937L122.169 123.991L121.893 124.018L121.646 124.045L121.369 124.073L121.066 124.1L120.79 124.127H120.515H120.212H119.907H119.632L119.356 124.1H119.053L118.777 124.073L118.5 124.045L118.197 124.018L117.922 123.964L117.647 123.937L117.369 123.882L117.094 123.828L116.818 123.774L116.543 123.719L116.266 123.638L116.018 123.584L115.743 123.502L115.467 123.421L115.218 123.312L114.943 123.23L114.695 123.149L114.419 123.041L114.17 122.932L113.922 122.823L113.675 122.689L113.425 122.58L113.178 122.444L112.958 122.309L112.708 122.173L112.488 122.037L112.267 121.902L112.047 121.739L111.826 121.576L111.605 121.413L111.385 121.25L111.191 121.087L110.971 120.897L111.137 120.68L111.329 120.489L111.495 120.272L111.688 120.055L111.854 119.865L112.019 119.647L112.213 119.43L112.377 119.24L112.571 119.023L112.736 118.833L112.93 118.615L113.094 118.398L113.261 118.208L113.453 117.991L113.619 117.773L113.811 117.583L113.978 117.366L114.198 117.529L114.446 117.692L114.667 117.855L114.915 118.018L115.137 118.154L115.384 118.316L115.604 118.452L115.854 118.561L116.074 118.697L116.321 118.806L116.571 118.914L116.818 119.023L117.067 119.104L117.316 119.213L117.591 119.294L117.867 119.376L118.114 119.457L118.391 119.512L118.667 119.566L118.942 119.62L119.245 119.647L119.522 119.702H119.798L120.101 119.729H120.376H120.707L121.01 119.702L121.287 119.647L121.535 119.593L121.783 119.539L122.004 119.457L122.197 119.349L122.418 119.186L122.583 118.996L122.694 118.778L122.777 118.534L122.804 118.262V118.208L122.777 117.882L122.666 117.61L122.528 117.42L122.335 117.257L122.113 117.094L121.893 116.986L121.646 116.877L121.369 116.768L121.038 116.633L120.845 116.579L120.626 116.524L120.376 116.443L120.129 116.388L119.853 116.307L119.576 116.253L119.273 116.171L118.997 116.117L118.694 116.035L118.419 115.981L118.142 115.9L117.867 115.845L117.591 115.764L117.342 115.682L117.067 115.628L116.818 115.546L116.571 115.465L116.321 115.383L116.018 115.275L115.743 115.166L115.467 115.058L115.19 114.949L114.943 114.813L114.667 114.677L114.446 114.542L114.198 114.406L113.978 114.243L113.756 114.107L113.564 113.944L113.37 113.754L113.178 113.564L113.011 113.374L112.847 113.184L112.708 112.994L112.571 112.776L112.433 112.532L112.322 112.344L112.239 112.126L112.157 111.882L112.074 111.664L112.019 111.393L111.963 111.148L111.936 110.877L111.908 110.605L111.88 110.307V110.008V109.954V109.682L111.908 109.41L111.936 109.166L111.963 108.894L112.019 108.65L112.074 108.406L112.157 108.161L112.213 107.917L112.322 107.672L112.433 107.428L112.543 107.184L112.681 106.939L112.819 106.695L112.984 106.477L113.15 106.26L113.342 106.043L113.536 105.853L113.729 105.635L113.95 105.445L114.142 105.309L114.364 105.146L114.584 104.983L114.804 104.848L115.053 104.712L115.301 104.603L115.549 104.468L115.798 104.359L116.074 104.277L116.349 104.169L116.598 104.087L116.818 104.033L117.067 103.979L117.316 103.924L117.591 103.87L117.839 103.816L118.114 103.789L118.391 103.761L118.667 103.734L118.942 103.707H119.217H119.522H119.826H120.129L120.432 103.734L120.735 103.761H121.01L121.315 103.789L121.59 103.843L121.893 103.87L122.169 103.924L122.418 103.979L122.694 104.033L122.969 104.087L123.217 104.142L123.494 104.223L123.742 104.305L123.99 104.359L124.267 104.468L124.514 104.549L124.762 104.658L125.01 104.766L125.287 104.875L125.535 105.011L125.755 105.119L126.004 105.255L126.252 105.391L126.472 105.527L126.721 105.69L126.941 105.825L127.163 105.989L127.383 106.152L127.603 106.314L127.438 106.532L127.3 106.749L127.135 106.966L126.969 107.184L126.804 107.428L126.666 107.645L126.499 107.862L126.335 108.08L126.196 108.297L126.031 108.514L125.866 108.732L125.727 108.949L125.562 109.193L125.396 109.41L125.231 109.628L125.093 109.845L124.928 110.062L124.707 109.899L124.459 109.763L124.239 109.628L124.017 109.465L123.77 109.356L123.548 109.22L123.3 109.111L123.08 109.003L122.831 108.894L122.611 108.786L122.363 108.704L122.142 108.596L121.838 108.514L121.563 108.433L121.287 108.351L121.01 108.297L120.735 108.243L120.459 108.188L120.184 108.161L119.907 108.134L119.659 108.107H119.384H119.053L118.75 108.161L118.473 108.215L118.225 108.27L118.005 108.378L117.811 108.487L117.563 108.704L117.397 108.949L117.288 109.193L117.26 109.465V109.519L117.288 109.872L117.425 110.171L117.536 110.334L117.728 110.524L117.977 110.66L118.197 110.795L118.473 110.904L118.777 111.013L119.108 111.121L119.328 111.176L119.548 111.257L119.798 111.311L120.045 111.393L120.321 111.447L120.626 111.529L120.929 111.61L121.232 111.692L121.535 111.746L121.81 111.827L122.113 111.909L122.391 111.963L122.666 112.045L122.942 112.126L123.189 112.208L123.466 112.289L123.714 112.371L123.962 112.452L124.267 112.559L124.542 112.695L124.817 112.803L125.093 112.939L125.342 113.075L125.59 113.211L125.81 113.347L126.031 113.51L126.252 113.645L126.472 113.836L126.693 114.025L126.886 114.243L127.079 114.433L127.244 114.65L127.41 114.895L127.547 115.112L127.686 115.357L127.797 115.574L127.88 115.818L127.961 116.062L128.017 116.307L128.072 116.579L128.127 116.85L128.155 117.122L128.183 117.42V117.719V117.773V118.072L128.155 118.371ZM108.811 123.801H108.534H108.259H107.984H107.708H107.431H107.155H106.88H106.605H106.3H106.025H105.749H105.474H105.196H104.921H104.646H104.37H104.093H103.818H103.542H103.267H102.991H102.714H102.439H102.164H101.888H101.611H101.336H101.06H100.757H100.48H100.204H99.9291H99.6537H99.3768H99.1012H98.8258H98.5501H98.2732H97.9979H97.7225H97.4469H97.1697H96.8946H96.619H96.3436H96.0667H95.791H95.4879H95.2125H94.9372H94.66H94.3846H94.1089H93.8339H93.557H93.2813H93.006V123.529V123.258V122.986V122.716V122.444V122.173V121.902V121.63V121.358V121.087V120.815V120.544V120.272V120V119.729V119.457V119.186V118.914V118.67V118.398V118.126V117.855V117.583V117.312V117.04V116.768V116.497V116.225V115.954V115.682V115.411V115.139V114.868V114.596V114.324V114.053V113.781V113.51V113.238V112.966V112.695V112.425V112.153V111.882V111.61V111.339V111.067V110.795V110.524V110.252V109.981V109.709V109.437V109.166V108.921V108.65V108.378V108.107V107.835V107.563V107.292V107.02V106.749V106.477V106.206V105.934V105.662V105.391V105.119V104.848V104.576V104.305V104.033H93.2813H93.557H93.8339H94.1089H94.3846H94.66H94.9372H95.2125H95.4879H95.7635H96.0404H96.3161H96.5911H96.8668H97.1159H97.3916H97.6669H97.9426H98.2195H98.4948H98.7702H99.0458H99.3227H99.5981H99.8734H100.149H100.426H100.702H100.977H101.252H101.53H101.805H102.08H102.356H102.631H102.909H103.184H103.459H103.735H104.012H104.287H104.562H104.838H105.088H105.363H105.638H105.914H106.191H106.466H106.742H107.017H107.294H107.569H107.845H108.12H108.397H108.673H108.948V104.305V104.549V104.82V105.092V105.364V105.608V105.88V106.152V106.396V106.667V106.939V107.184V107.455V107.726V107.998V108.243V108.514H108.673H108.397H108.12H107.845H107.569H107.294H107.045H106.769H106.494H106.218H105.941H105.666H105.39H105.115H104.838H104.562H104.287H104.012H103.735H103.487H103.211H102.936H102.659H102.384H102.108H101.833H101.556H101.28H101.005H100.729H100.452H100.177H99.9291H99.6537H99.3768H99.1012H98.8258H98.5501H98.2732V108.786V109.057V109.329V109.6V109.872V110.117V110.388V110.66V110.931V111.203V111.474V111.746H98.5501H98.8258H99.1012H99.3768H99.6537H99.9291H100.204H100.48H100.729H101.005H101.28H101.556H101.833H102.108H102.384H102.659H102.936H103.211H103.487H103.762H104.039H104.315H104.59H104.866H105.143H105.418H105.666H105.941H106.218H106.494H106.769H107.045H107.322H107.597H107.873V112.017V112.262V112.532V112.803V113.048V113.319V113.591V113.836V114.107V114.379V114.65V114.895V115.166V115.438V115.682V115.954H107.597H107.322H107.045H106.769H106.494H106.218H105.941H105.666H105.418H105.143H104.866H104.59H104.315H104.039H103.762H103.487H103.211H102.936H102.659H102.384H102.108H101.833H101.556H101.28H101.005H100.729H100.48H100.204H99.9291H99.6537H99.3768H99.1012H98.8258H98.5501H98.2732V116.225V116.524V116.796V117.067V117.366V117.638V117.909V118.208V118.479V118.751V119.05V119.321H98.5501H98.8258H99.1012H99.3768H99.6537H99.9291H100.204H100.48H100.757H101.06H101.336H101.611H101.888H102.164H102.439H102.714H102.991H103.267H103.542H103.818H104.093H104.37H104.646H104.921H105.196H105.474H105.749H106.025H106.3H106.605H106.88H107.155H107.431H107.708H107.984H108.259H108.534H108.811H109.087V119.593V119.837V120.109V120.381V120.652V120.897V121.168V121.44V121.684V121.956V122.227V122.472V122.742V123.013V123.285V123.529V123.801H108.811ZM88.6575 123.801H88.3821H88.1065H87.8021H87.5267H87.251H86.9757H86.6985H86.4231H86.12H85.8446H85.5689H85.292H85.0167H84.7413H84.4382H84.161H83.8856H83.6099V123.529V123.258V122.986V122.715V122.441V122.17V121.898V121.626V121.355V121.084V120.812V120.539V120.267V119.996V119.724V119.452V119.179V118.907V118.636V118.365V118.093V117.821V117.548V117.277V117.005V116.733V116.462V116.19V115.917V115.645V115.374V115.102V114.831V114.559V114.286V114.015V113.743V113.471V113.2V112.926V112.655V112.383V112.112L83.4718 112.329L83.3071 112.575L83.1683 112.792L83.0039 113.01L82.8655 113.254L82.6989 113.471L82.5623 113.689L82.4235 113.935L82.2591 114.152L82.1204 114.369L81.9544 114.586L81.8175 114.832L81.6512 115.05L81.5143 115.267L81.3756 115.511L81.2093 115.73L81.0724 115.948L80.9062 116.192L80.7696 116.409L80.6033 116.626L80.4664 116.872L80.3276 117.09L80.1617 117.307L80.0248 117.552L79.8585 117.77L79.7216 117.987L79.5553 118.205L79.4166 118.449L79.2797 118.668L79.1137 118.885L78.9768 119.13L78.8106 119.347L78.6721 119.564L78.5074 119.81L78.3689 120.028H78.2595L78.0936 119.783L77.9548 119.564L77.7901 119.32L77.6517 119.102L77.4869 118.858L77.3485 118.639L77.1841 118.395L77.0453 118.177L76.8791 117.933L76.7422 117.716L76.5759 117.47L76.4393 117.253L76.273 117.008L76.1343 116.791L75.9699 116.545L75.8311 116.328L75.6667 116.083L75.5004 115.866L75.362 115.62L75.1973 115.403L75.0588 115.158L74.8941 114.941L74.7557 114.695L74.5909 114.478L74.4525 114.233L74.2862 114.016L74.1493 113.772L73.9831 113.553L73.8462 113.308L73.6799 113.091L73.5414 112.846L73.377 112.63L73.238 112.383L73.0736 112.166V112.438V112.709V112.981V113.254V113.526V113.797V114.069V114.341V114.613V114.885V115.13V115.401V115.673V115.944V116.217V116.489V116.761V117.032V117.304V117.575V117.848V118.12V118.392V118.663V118.935V119.206V119.48V119.751V120.023V120.294V120.566V120.839V121.084V121.355V121.626V121.898V122.17V122.441V122.715V122.986V123.258V123.529V123.801H72.7982H72.5213H72.2456H71.9703H71.6949H71.418H71.1424H70.867H70.5914H70.3145H70.0391H69.7634H69.4881H69.2112H68.9358H68.6602H68.3845H68.1076H67.8322V123.529V123.258V122.986V122.716V122.444V122.173V121.902V121.63V121.358V121.087V120.815V120.544V120.272V120V119.729V119.457V119.186V118.914V118.67V118.398V118.126V117.855V117.583V117.312V117.04V116.768V116.497V116.225V115.954V115.682V115.411V115.139V114.868V114.596V114.324V114.053V113.781V113.51V113.238V112.966V112.695V112.425V112.153V111.882V111.61V111.339V111.067V110.795V110.524V110.252V109.981V109.709V109.437V109.166V108.921V108.65V108.378V108.107V107.835V107.563V107.292V107.02V106.749V106.477V106.206V105.934V105.662V105.391V105.119V104.848V104.576V104.305V104.033H68.1076H68.3845H68.6327H68.9077H69.1834H69.4603H69.7081H69.9835H70.2607H70.536H70.7839H71.0592H71.3364H71.6118H71.8593H72.1347H72.4119H72.6876H72.9351H73.2105H73.4877L73.6246 104.25L73.763 104.495L73.9274 104.71L74.0662 104.955L74.2046 105.172L74.3415 105.417L74.48 105.632L74.645 105.877L74.7832 106.094L74.9219 106.311L75.0588 106.554L75.1973 106.771L75.362 107.015L75.5004 107.233L75.6389 107.476L75.7758 107.693L75.9421 107.91L76.0808 108.153L76.2174 108.37L76.3559 108.615L76.4931 108.832L76.6593 109.075L76.7978 109.292L76.9344 109.536L77.0731 109.752L77.21 109.969L77.3763 110.214L77.5148 110.431L77.6517 110.676L77.7901 110.891L77.927 111.136L78.0936 111.353L78.232 111.596L78.3689 111.813L78.5074 111.596L78.6458 111.353L78.8106 111.136L78.9487 110.891L79.0859 110.676L79.2244 110.431L79.3891 110.214L79.5275 109.969L79.6663 109.752L79.8029 109.536L79.9692 109.292L80.1061 109.075L80.2448 108.832L80.383 108.615L80.5477 108.37L80.6861 108.153L80.8249 107.91L80.9615 107.693L81.1005 107.476L81.265 107.233L81.4034 107.015L81.5419 106.771L81.6791 106.554L81.845 106.311L81.9822 106.094L82.1204 105.877L82.2591 105.632L82.4235 105.417L82.5623 105.172L82.6989 104.955L82.8377 104.71L83.0039 104.495L83.1408 104.25L83.2793 104.033H83.5546H83.8303H84.0794H84.355H84.6304H84.9057H85.1551H85.4308H85.7058H85.9815H86.2309H86.5063H86.7816H87.0573H87.3064H87.582H87.8574H88.1327H88.3821H88.6575H88.9328V104.305V104.576V104.848V105.119V105.391V105.662V105.934V106.206V106.477V106.749V107.02V107.292V107.563V107.835V108.107V108.378V108.65V108.921V109.166V109.437V109.709V109.981V110.252V110.524V110.795V111.067V111.339V111.61V111.882V112.153V112.425V112.695V112.966V113.238V113.51V113.781V114.053V114.324V114.596V114.868V115.139V115.411V115.682V115.954V116.225V116.497V116.768V117.04V117.312V117.583V117.855V118.126V118.398V118.67V118.914V119.186V119.457V119.729V120V120.272V120.544V120.815V121.087V121.358V121.63V121.902V122.173V122.444V122.716V122.986V123.258V123.529V123.801H88.6575ZM56.6537 115.655L56.5705 115.409L56.4615 115.138L56.3505 114.893L56.2674 114.647L56.1583 114.403L56.0476 114.131L55.9642 113.885L55.8533 113.64L55.7445 113.396L55.661 113.15L55.5501 112.879L55.4688 112.634L55.3579 112.388L55.2469 112.144L55.1641 111.899L55.0547 111.626L54.9441 111.382L54.8609 111.137L54.75 110.891L54.6409 110.62L54.5578 110.374L54.4468 110.129L54.3377 110.374L54.2549 110.62L54.144 110.891L54.033 111.137L53.9514 111.382L53.8408 111.626L53.7299 111.899L53.6208 112.144L53.5373 112.388L53.4267 112.634L53.3157 112.879L53.2342 113.15L53.1235 113.396L53.0126 113.64L52.9297 113.885L52.8204 114.131L52.7094 114.403L52.5988 114.647L52.5175 114.893L52.4065 115.138L52.2956 115.409L52.2125 115.655L52.1034 115.9H52.3787H52.6541H52.9297H53.2067H53.482H53.7574H54.033H54.3102H54.5578H54.8331H55.1103H55.3857H55.661H55.9367H56.2121H56.489H56.7643L56.6537 115.655ZM65.316 123.801H65.0391H64.791H64.5159H64.2387H63.9634H63.6877H63.4402H63.163H62.8876H62.6123H62.3366H62.0597H61.8119H61.5365H61.2608H60.9839H60.7086H60.4607H60.1854H59.9085L59.7991 123.556L59.7159 123.312L59.6053 123.067L59.4944 122.796L59.4128 122.553L59.3021 122.309L59.1912 122.064L59.1096 121.82L58.999 121.576L58.888 121.331L58.8052 121.087L58.6958 120.815L58.5849 120.571L58.5017 120.326L58.3908 120.082H58.1154H57.8401H57.5647H57.2894H57.04H56.7643H56.489H56.2121H55.9367H55.661H55.3857H55.1103H54.8331H54.5578H54.3102H54.033H53.7574H53.482H53.2067H52.9297H52.6541H52.3787H52.1034H51.828H51.5783H51.3033H51.0276H50.7504H50.4751L50.366 120.326L50.2828 120.571L50.1719 120.815L50.0612 121.087L49.9797 121.331L49.869 121.576L49.7581 121.82L49.6749 122.064L49.5659 122.309L49.4549 122.553L49.3718 122.796L49.2624 123.067L49.1517 123.312L49.0686 123.556L48.9577 123.801H48.6823H48.407H48.1316H47.8544H47.579H47.2759H47.0005H46.7249H46.448H46.1726H45.8973H45.6216H45.3444H45.0693H44.794H44.4908H44.2136H43.9383H43.6626H43.3872L43.4963 123.556L43.6073 123.312L43.7179 123.067L43.8273 122.796L43.9104 122.553L44.0214 122.309L44.132 122.064L44.2411 121.82L44.3521 121.576L44.463 121.304L44.5721 121.059L44.683 120.815L44.7659 120.571L44.8768 120.326L44.9859 120.082L45.0968 119.81L45.2075 119.566L45.3169 119.321L45.4278 119.077L45.5385 118.833L45.6216 118.588L45.7307 118.316L45.8416 118.072L45.9526 117.828L46.0617 117.583L46.1726 117.339L46.2835 117.094L46.3926 116.823L46.4758 116.579L46.5867 116.334L46.6974 116.09L46.8068 115.845L46.9174 115.601L47.028 115.329L47.1374 115.085L47.2481 114.84L47.3312 114.596L47.4421 114.352L47.5512 114.107L47.6622 113.836L47.7731 113.591L47.8822 113.347L47.9928 113.102L48.1038 112.858L48.1869 112.613L48.2963 112.371L48.407 112.099L48.5176 111.855L48.627 111.61L48.7376 111.365L48.8486 111.121L48.9577 110.877L49.0408 110.605L49.1517 110.361L49.2624 110.117L49.3718 109.872L49.4827 109.628L49.5934 109.383L49.7028 109.111L49.8134 108.867L49.8965 108.623L50.0072 108.378L50.1166 108.134L50.2272 107.889L50.3381 107.618L50.4472 107.374L50.5582 107.129L50.6691 106.885L50.7504 106.64L50.8614 106.396L50.9723 106.124L51.0832 105.88L51.1923 105.635L51.3033 105.391L51.4139 105.146L51.523 104.902L51.6064 104.631L51.7171 104.386L51.828 104.142L51.9371 103.897H52.2125H52.4619H52.7372H53.0126H53.2898H53.5373H53.8127H54.0883H54.3655H54.6134H54.8884H55.1641H55.441H55.6889H55.9642H56.2396H56.5168H56.7643H57.04L57.1506 104.142L57.2616 104.386L57.371 104.631L57.4816 104.902L57.5647 105.146L57.6738 105.391L57.7848 105.635L57.8954 105.88L58.0063 106.124L58.1154 106.396L58.2264 106.64L58.3373 106.885L58.4186 107.129L58.5295 107.374L58.6405 107.618L58.7514 107.889L58.8605 108.134L58.9712 108.378L59.0821 108.623L59.1912 108.867L59.2743 109.111L59.385 109.383L59.4944 109.628L59.6053 109.872L59.7159 110.117L59.8269 110.361L59.936 110.605L60.0466 110.877L60.1301 111.121L60.2392 111.365L60.3498 111.61L60.4607 111.855L60.5717 112.099L60.6808 112.371L60.7917 112.613L60.9023 112.858L60.9839 113.102L61.0946 113.347L61.2055 113.591L61.3149 113.836L61.4256 114.107L61.5365 114.352L61.6474 114.596L61.7565 114.84L61.8397 115.085L61.9503 115.329L62.0597 115.601L62.1703 115.845L62.2813 116.09L62.3919 116.334L62.5013 116.579L62.6123 116.823L62.6951 117.094L62.8045 117.339L62.9151 117.583L63.0261 117.828L63.1352 118.072L63.2461 118.316L63.357 118.588L63.468 118.833L63.5493 119.077L63.6602 119.321L63.7712 119.566L63.8803 119.81L63.9909 120.082L64.1018 120.326L64.2125 120.571L64.3216 120.815L64.405 121.059L64.5159 121.304L64.625 121.576L64.7357 121.82L64.8463 122.064L64.9557 122.309L65.0663 122.553L65.1773 122.796L65.2607 123.067L65.3695 123.312L65.4805 123.556L65.5911 123.801H65.316ZM41.1513 121.277L40.9298 121.44L40.7372 121.576L40.5156 121.739L40.2956 121.874L40.0756 122.037L39.854 122.173L39.634 122.309L39.3846 122.444L39.1367 122.58L38.8889 122.716L38.6398 122.823L38.3919 122.959L38.1166 123.067L37.869 123.176L37.5918 123.285L37.3443 123.393L37.0961 123.475L36.847 123.556L36.5992 123.638L36.3238 123.719L36.0763 123.801L35.7991 123.855L35.5512 123.91L35.2759 123.964L34.999 124.018L34.7233 124.045L34.4201 124.073L34.1448 124.1L33.8416 124.127L33.5644 124.154L33.2616 124.181H32.9584H32.6549H32.3521H32.0749L31.7995 124.154L31.4963 124.127L31.221 124.1L30.9456 124.073L30.6684 124.045L30.3931 123.991L30.1174 123.937L29.8699 123.882L29.593 123.828L29.3451 123.747L29.0698 123.692L28.8204 123.611L28.5725 123.502L28.3247 123.421L28.0496 123.312L27.8002 123.203L27.5524 123.095L27.3048 122.986L27.0551 122.851L26.8354 122.716L26.5875 122.58L26.366 122.444L26.1459 122.309L25.9243 122.146L25.7043 121.983L25.484 121.82L25.2902 121.657L25.098 121.494L24.9039 121.304L24.7117 121.141L24.5176 120.951L24.3254 120.761L24.1591 120.571L23.9944 120.354L23.8281 120.163L23.6897 119.946L23.525 119.729L23.3868 119.512L23.2496 119.294L23.1112 119.05L22.9727 118.833L22.8636 118.588L22.7527 118.344L22.642 118.099L22.5326 117.855L22.4495 117.638L22.3386 117.393L22.2832 117.149L22.2017 116.904L22.1463 116.633L22.0632 116.388L22.0079 116.117L21.9801 115.872L21.9245 115.601L21.8973 115.357L21.8691 115.085L21.8432 114.813L21.8157 114.542V114.243V113.971V113.917V113.645L21.8432 113.347V113.075L21.8691 112.803L21.8973 112.505L21.9526 112.235L21.9801 111.963L22.0354 111.719L22.1185 111.447L22.1742 111.176L22.2554 110.931L22.3386 110.66L22.4217 110.415L22.5326 110.143L22.642 109.899L22.7527 109.655L22.8636 109.41L22.9727 109.166L23.1112 108.921L23.2496 108.704L23.3868 108.487L23.525 108.27L23.6637 108.052L23.8281 107.835L23.9944 107.618L24.1591 107.401L24.3254 107.21L24.5176 107.02L24.6839 106.83L24.8764 106.64L25.0702 106.45L25.2624 106.287L25.484 106.097L25.6765 105.934L25.8965 105.771L26.1181 105.635L26.3381 105.472L26.56 105.337L26.7798 105.201L27.0276 105.065L27.277 104.929L27.5246 104.794L27.7724 104.685L28.0215 104.576L28.2972 104.44L28.5172 104.359L28.7925 104.277L29.0422 104.169L29.2898 104.114L29.5373 104.033L29.8142 103.979L30.0621 103.897L30.3374 103.843L30.6131 103.816L30.89 103.761L31.1657 103.734L31.4407 103.707L31.7164 103.68L31.9936 103.653H32.2967H32.5721H32.875H33.1781L33.4831 103.68L33.7863 103.707H34.0617L34.337 103.734L34.6402 103.789L34.8896 103.816L35.1649 103.87L35.4406 103.924L35.6897 103.979L35.9372 104.033L36.1854 104.087L36.4348 104.169L36.6823 104.223L36.9024 104.305L37.1518 104.386L37.3996 104.495L37.6471 104.603L37.8965 104.712L38.1444 104.848L38.3919 104.956L38.6138 105.092L38.8614 105.228L39.0814 105.364L39.3308 105.5L39.5508 105.662L39.7709 105.798L39.9924 105.961L40.2125 106.124L40.4341 106.314L40.6541 106.477L40.4878 106.695L40.2956 106.885L40.1293 107.102L39.9371 107.319L39.7709 107.537L39.6061 107.726L39.4121 107.944L39.2477 108.161L39.0814 108.351L38.8889 108.569L38.7229 108.786L38.5304 109.003L38.3641 109.193L38.1997 109.41L38.0059 109.628L37.8409 109.845L37.6471 110.035L37.4824 110.252L37.2608 110.089L37.0408 109.899L36.8192 109.763L36.5992 109.6L36.3792 109.465L36.1576 109.329L35.9372 109.193L35.6897 109.057L35.4681 108.949L35.2481 108.84L35.0265 108.759L34.7786 108.677L34.5311 108.596L34.2817 108.541L34.0063 108.487L33.731 108.433L33.4553 108.406L33.1522 108.378L32.8474 108.351H32.5443H32.2689L31.9936 108.378L31.7442 108.406L31.4688 108.46L31.221 108.514L30.9716 108.596L30.724 108.677L30.4762 108.786L30.2283 108.894L30.0068 109.03L29.787 109.166L29.5651 109.302L29.3729 109.465L29.1788 109.628L28.9866 109.791L28.8204 109.981L28.6281 110.171L28.4619 110.388L28.3247 110.578L28.1862 110.795L28.0496 111.04L27.9109 111.257L27.8002 111.501L27.7171 111.746L27.6077 111.99L27.5246 112.262L27.4692 112.532L27.4139 112.776L27.3583 113.075L27.3308 113.347L27.3048 113.618V113.917V113.971V114.243L27.3308 114.514L27.3583 114.759L27.3861 115.031L27.4414 115.275L27.497 115.519L27.5524 115.764L27.6355 116.008L27.7171 116.225L27.828 116.497L27.9387 116.741L28.0756 116.986L28.214 117.203L28.3525 117.42L28.5172 117.638L28.6835 117.828L28.8757 118.018L29.0422 118.208L29.2342 118.371L29.4561 118.534L29.6761 118.697L29.8958 118.833L30.1174 118.968L30.3656 119.077L30.6131 119.186L30.8622 119.294L31.1378 119.376L31.4132 119.457L31.6904 119.512L31.9658 119.566L32.2411 119.593L32.5443 119.62H32.8474H33.1781L33.4831 119.593L33.7863 119.566L34.0617 119.539L34.337 119.484L34.6142 119.43L34.8896 119.349L35.1371 119.294L35.3853 119.186L35.6069 119.077L35.8544 118.968L36.0482 118.86L36.2685 118.724V118.452V118.181V117.909V117.638V117.339V117.067V116.796V116.524V116.253H35.9929H35.7438H35.4681H35.1927H34.9174H34.668H34.3923H34.117H33.8416H33.5925H33.3169H33.0415H32.7659H32.5168H32.2411V115.981V115.737V115.465V115.194V114.922V114.677V114.406V114.134V113.863V113.618V113.347V113.075V112.803V112.559V112.289H32.5168H32.7937H33.0693H33.3444H33.62H33.8954H34.1726H34.448H34.7233H34.999H35.2759H35.5512H35.8266H36.1019H36.3792H36.6548H36.9302H37.2055H37.4824H37.7581H38.0334H38.3088H38.5857H38.8614H39.1367H39.4121H39.6893H39.9646H40.2403H40.5156H40.7925H41.0679H41.3436V112.559V112.83V113.102V113.347V113.618V113.89V114.161V114.433V114.705V114.949V115.221V115.492V115.764V116.035V116.307V116.579V116.823V117.094V117.366V117.638V117.909V118.181V118.452V118.697V118.968V119.24V119.512V119.783V120.055V120.299V120.571V120.842V121.114L41.1513 121.277Z" fill="#1D1935"/>
    <path d="M32.2805 59.3062H44.2351V50.2421H32.2805V31.7376H44.711V22.6735H22.1289V88.0905H44.9002V79.026H32.2805V59.3062Z" fill="#1D1935"/>
    <path d="M117.908 61.2695V76.0353C117.908 78.6522 116.674 79.8664 114.113 79.8664H112.215C109.559 79.8664 108.325 78.6522 108.325 76.0353V34.7278C108.325 32.1111 109.559 30.897 112.215 30.897H113.923C116.485 30.897 117.719 32.1111 117.719 34.7278V47.5321H127.68V34.1671C127.68 26.0375 123.695 22.1122 115.442 22.1122H110.507C102.254 22.1122 98.1726 26.1302 98.1726 34.2613V76.5018C98.1726 84.6332 102.254 88.6509 110.507 88.6509H115.536C123.791 88.6509 127.87 84.6332 127.87 76.5018V61.2695H117.908Z" fill="#1D1935"/>
    <path d="M82.655 88.0905H92.8082V22.6732H82.655V88.0905Z" fill="#1D1935"/>
    <path d="M67.9225 51.737C67.9225 54.354 66.6903 55.5696 64.1284 55.5696H59.953V31.458H64.1284C66.6903 31.458 67.9225 32.6724 67.9225 35.2888V51.737ZM65.7403 22.6732H49.801V88.0905H59.953V64.3526H65.7403C73.9951 64.3526 78.0744 60.3349 78.0744 52.2053V34.8223C78.0744 26.6912 73.9951 22.6732 65.7403 22.6732Z" fill="#1D1935"/>
    <path fill-rule="evenodd" clip-rule="evenodd" d="M46.0786 147.241H104.195L74.5313 156.83L46.0786 147.241Z" fill="#1D1935"/>
</svg>
