<svg width="150" height="180" viewBox="0 0 150 180" fill="none" xmlns="http://www.w3.org/2000/svg">
    <path d="M145.209 61.3681C144.141 62.1782 125.273 72.5653 125.273 95.6616C125.273 122.376 149.281 131.827 150 132.061C149.889 132.637 146.186 145.004 137.342 157.606C129.456 168.695 121.22 179.766 108.691 179.766C96.1614 179.766 92.937 172.655 78.4732 172.655C64.3778 172.655 59.3662 180 47.9057 180C36.4452 180 28.4486 169.739 19.2544 157.138C8.60459 142.34 0 119.352 0 97.5337C0 62.5382 23.2895 43.9784 46.2105 43.9784C58.3896 43.9784 68.542 51.7912 76.1884 51.7912C83.4664 51.7912 94.8164 43.5103 108.672 43.5103C113.923 43.5103 132.791 43.9784 145.209 61.3681ZM102.094 28.6949C107.825 22.0522 111.878 12.8353 111.878 3.61836C111.878 2.34023 111.768 1.0441 111.528 0C102.205 0.342034 91.1129 6.06661 84.4245 13.6454C79.1733 19.4779 74.2722 28.6949 74.2722 38.0378C74.2722 39.4419 74.5117 40.8461 74.6223 41.2961C75.2119 41.4041 76.17 41.5302 77.1281 41.5302C85.4932 41.5302 96.014 36.0576 102.094 28.6949Z" fill="white"/>
</svg>
