<svg width="24" height="24" viewBox="0 0 24 24" fill="none" xmlns="http://www.w3.org/2000/svg">
<path opacity="0.5" fill-rule="evenodd" clip-rule="evenodd" d="M0 12C0 5.37258 5.37258 0 12 0C18.6274 0 24 5.37258 24 12C24 18.6274 18.6274 24 12 24C5.37258 24 0 18.6274 0 12Z" fill="#5B318E"/>
<path d="M16.6858 7.98617C15.8119 7.6089 14.8775 7.33471 13.9006 7.17859C13.7806 7.37874 13.6405 7.64794 13.5438 7.86208C12.5054 7.71798 11.4765 7.71798 10.4571 7.86208C10.3605 7.64794 10.2172 7.37874 10.0961 7.17859C9.1182 7.33471 8.18273 7.60991 7.30886 7.98817C5.54624 10.4459 5.06842 12.8426 5.30733 15.2053C6.47639 16.0109 7.60935 16.5002 8.72319 16.8204C8.99821 16.4712 9.24348 16.0999 9.45478 15.7086C9.05235 15.5676 8.66692 15.3934 8.30272 15.1913C8.39934 15.1252 8.49385 15.0562 8.58516 14.9851C10.8065 15.9438 13.22 15.9438 15.4148 14.9851C15.5072 15.0562 15.6016 15.1252 15.6972 15.1913C15.3319 15.3944 14.9454 15.5685 14.543 15.7097C14.7543 16.0999 14.9985 16.4722 15.2746 16.8214C16.3895 16.5012 17.5235 16.0119 18.6926 15.2053C18.9729 12.4664 18.2137 10.0917 16.6858 7.98617ZM9.7574 13.7523C9.09059 13.7523 8.54374 13.1779 8.54374 12.4784C8.54374 11.7789 9.07891 11.2035 9.7574 11.2035C10.4359 11.2035 10.9827 11.7779 10.9711 12.4784C10.9721 13.1779 10.4359 13.7523 9.7574 13.7523ZM14.2425 13.7523C13.5757 13.7523 13.0289 13.1779 13.0289 12.4784C13.0289 11.7789 13.564 11.2035 14.2425 11.2035C14.921 11.2035 15.4679 11.7779 15.4562 12.4784C15.4562 13.1779 14.921 13.7523 14.2425 13.7523Z" fill="#C6B3E3"/>
</svg>
