<svg width="24" height="24" viewBox="0 0 24 24" fill="none" xmlns="http://www.w3.org/2000/svg">
<path opacity="0.5" fill-rule="evenodd" clip-rule="evenodd" d="M0 12C0 5.37258 5.37258 0 12 0C18.6274 0 24 5.37258 24 12C24 18.6274 18.6274 24 12 24C5.37258 24 0 18.6274 0 12Z" fill="#5B318E"/>
<path d="M11.07 16.25H12.93V14.39H11.07V16.25ZM12 6C9.79 6 8 7.79 8 10H9.86C9.86 8.81 10.81 7.86 12 7.86C13.19 7.86 14.14 8.81 14.14 10C14.14 12 11.07 11.77 11.07 14H12.93C12.93 12.54 16 12.31 16 10C16 7.79 14.21 6 12 6Z" fill="#C6B3E3"/>
</svg>