<svg width="24" height="24" viewBox="0 0 24 24" fill="none" xmlns="http://www.w3.org/2000/svg">
<path opacity="0.5" fill-rule="evenodd" clip-rule="evenodd" d="M0 12C0 5.37257 5.37257 0 12 0C18.6274 0 24 5.37257 24 12C24 18.6274 18.6274 24 12 24C5.37257 24 0 18.6274 0 12Z" fill="#5B318E"/>
<path d="M11.25 16.25H12.75V11.75H11.25V16.25ZM12 10.25C12.2125 10.25 12.3906 10.1781 12.5344 10.0344C12.6781 9.89062 12.75 9.7125 12.75 9.5C12.75 9.2875 12.6781 9.10938 12.5344 8.96563C12.3906 8.82188 12.2125 8.75 12 8.75C11.7875 8.75 11.6094 8.82188 11.4656 8.96563C11.3219 9.10938 11.25 9.2875 11.25 9.5C11.25 9.7125 11.3219 9.89062 11.4656 10.0344C11.6094 10.1781 11.7875 10.25 12 10.25ZM12 20C10.2625 19.5625 8.82812 18.5656 7.69688 17.0094C6.56563 15.4531 6 13.725 6 11.825V7.25L12 5L18 7.25V11.825C18 13.725 17.4344 15.4531 16.3031 17.0094C15.1719 18.5656 13.7375 19.5625 12 20ZM12 18.425C13.3 18.0125 14.375 17.1875 15.225 15.95C16.075 14.7125 16.5 13.3375 16.5 11.825V8.28125L12 6.59375L7.5 8.28125V11.825C7.5 13.3375 7.925 14.7125 8.775 15.95C9.625 17.1875 10.7 18.0125 12 18.425Z" fill="#C6B3E3"/>
</svg>
