<svg width="24" height="24" viewBox="0 0 24 24" fill="none" xmlns="http://www.w3.org/2000/svg">
<path opacity="0.5" fill-rule="evenodd" clip-rule="evenodd" d="M0 12C0 5.37258 5.37258 0 12 0C18.6274 0 24 5.37258 24 12C24 18.6274 18.6274 24 12 24C5.37258 24 0 18.6274 0 12Z" fill="#5B318E"/>
<path d="M12.2992 6C11.923 6 11.58 6.19833 10.8952 6.59325L7.14375 8.75508C6.49778 9.12003 5.95946 9.64885 5.58309 10.2882C5.20671 10.9276 5.00559 11.6549 5 12.3968V12.5345C5.00563 13.2755 5.20629 14.0019 5.5818 14.6406C5.9573 15.2794 6.49441 15.808 7.13908 16.1733L9.48583 17.5284C10.859 18.3217 11.5456 18.7196 12.2998 18.7196C13.0535 18.7202 13.7407 18.3241 15.1144 17.5307L17.5942 16.0998C18.2807 15.7032 18.6232 15.5048 18.8116 15.1788C19 14.8521 19.0006 14.4554 19 13.6621V12.1279C19.0001 12.0215 18.9722 11.9169 18.9191 11.8246C18.8661 11.7324 18.7896 11.6557 18.6975 11.6023C18.6055 11.549 18.501 11.5208 18.3945 11.5206C18.2881 11.5204 18.1835 11.5482 18.0912 11.6012L12.9998 14.5318C12.6574 14.7284 12.4865 14.8276 12.2992 14.8276C12.1108 14.8276 11.9399 14.7296 11.5969 14.5324L8.15292 12.5532C7.97967 12.4534 7.89275 12.4038 7.82333 12.3951C7.74667 12.3853 7.6689 12.401 7.60205 12.4398C7.5352 12.4786 7.483 12.5383 7.4535 12.6097C7.42725 12.6745 7.42725 12.7743 7.42842 12.9743C7.42958 13.1213 7.42842 13.1948 7.443 13.2625C7.47392 13.4136 7.55325 13.5501 7.66875 13.6516C7.72067 13.6965 7.78425 13.7332 7.91142 13.8067L11.5952 15.9359C11.9387 16.1342 12.1108 16.2334 12.2992 16.2334C12.4882 16.2334 12.6592 16.1342 13.0027 15.9365L17.5177 13.3296C17.6356 13.2619 17.6939 13.2292 17.7377 13.2537C17.7814 13.2794 17.7814 13.3471 17.7814 13.4824V14.1783C17.7814 14.3767 17.782 14.4758 17.7347 14.5569C17.6881 14.6386 17.6023 14.6876 17.4302 14.7867L13.7074 16.9363C13.0202 17.333 12.6767 17.5313 12.2998 17.5313C11.923 17.5313 11.5788 17.333 10.8928 16.9352L7.41033 14.9215L7.38525 14.9069C7.02659 14.6969 6.72875 14.3971 6.52103 14.0371C6.31331 13.6771 6.20284 13.2692 6.2005 12.8536V12.1851C6.2005 11.7178 6.44958 11.2862 6.85383 11.0511C7.02948 10.9493 7.22885 10.8957 7.43184 10.8956C7.63482 10.8955 7.83425 10.9489 8.01 11.0505L10.8952 12.7177C11.58 13.1137 11.923 13.3121 12.2992 13.3127C12.6755 13.3127 13.0185 13.1143 13.7051 12.7194L18.0696 10.2076C18.1665 10.1518 18.247 10.0714 18.303 9.97459C18.359 9.87776 18.3885 9.76789 18.3885 9.65604C18.3885 9.5442 18.359 9.43432 18.303 9.3375C18.247 9.24067 18.1665 9.1603 18.0696 9.1045L13.7033 6.59092C13.0179 6.19717 12.6755 6 12.2998 6H12.2992Z" fill="#C6B3E3"/>
</svg>
